<?xml version="1.0" standalone="no"?>
<!DOCTYPE svg PUBLIC "-//W3C//DTD SVG 20010904//EN"
 "http://www.w3.org/TR/2001/REC-SVG-20010904/DTD/svg10.dtd">
<svg version="1.0" xmlns="http://www.w3.org/2000/svg"
 width="250.000000pt" height="202.000000pt" viewBox="0 0 250.000000 202.000000"
 preserveAspectRatio="xMidYMid meet">

<g transform="translate(0.000000,202.000000) scale(0.100000,-0.100000)"
fill="#d90429" stroke="none">
<path d="M1050 1882 c-19 -10 -46 -35 -59 -55 -23 -36 -27 -37 -83 -37 -80 0
-98 -11 -98 -60 l0 -40 -135 0 -135 0 0 -715 0 -715 350 0 350 0 0 35 0 35
-315 0 -315 0 2 647 3 648 98 3 97 3 0 -34 c0 -61 4 -61 304 -62 149 -1 281 2
294 7 18 6 22 15 22 48 l0 40 95 0 95 0 2 -382 3 -383 33 -3 32 -3 0 420 0
421 -130 0 -130 0 0 33 c0 48 -15 57 -91 57 -66 0 -67 1 -87 34 -27 46 -64 68
-120 73 -33 3 -57 -1 -82 -15z m115 -87 c14 -13 25 -33 25 -43 0 -31 21 -41
90 -44 l65 -3 3 -42 3 -43 -225 0 -226 0 0 45 0 45 70 0 69 0 11 40 c18 68 72
89 115 45z"/>
<path d="M900 1410 c-24 -33 -47 -60 -52 -60 -4 0 -15 11 -24 26 -19 28 -57
30 -62 3 -4 -24 75 -120 93 -113 22 9 136 166 133 184 -2 8 -12 16 -24 18 -15
2 -31 -13 -64 -58z"/>
<path d="M1038 1365 c-8 -19 -8 -28 2 -40 11 -13 43 -15 218 -13 182 3 206 5
216 21 8 12 8 22 0 35 -10 15 -34 17 -218 20 l-206 2 -12 -25z"/>
<path d="M904 1178 c-26 -35 -49 -65 -51 -67 -2 -3 -16 10 -31 29 -30 35 -62
37 -62 4 0 -25 69 -114 88 -114 19 0 142 158 142 182 0 13 -19 28 -35 28 -2 0
-25 -28 -51 -62z"/>
<path d="M1052 1144 c-26 -18 -28 -37 -6 -58 13 -13 46 -16 208 -16 212 0 234
5 223 52 -4 15 -16 28 -29 32 -13 3 -102 6 -198 6 -143 0 -180 -3 -198 -16z"/>
<path d="M900 940 c-24 -33 -48 -60 -52 -60 -4 0 -15 11 -24 26 -19 28 -57 30
-62 3 -3 -17 72 -119 88 -119 15 0 141 173 138 189 -2 9 -12 17 -23 19 -14 1
-33 -15 -65 -58z"/>
<path d="M1042 908 c-16 -16 -15 -43 2 -57 9 -8 75 -11 216 -9 181 3 204 5
214 21 8 12 8 22 0 35 -10 15 -34 17 -215 20 -151 2 -208 -1 -217 -10z"/>
<path d="M1522 805 c-108 -30 -177 -86 -224 -183 -30 -61 -33 -74 -32 -157 0
-69 5 -101 22 -138 30 -66 104 -142 171 -174 48 -23 69 -27 146 -28 78 0 98 4
150 28 122 57 197 175 199 312 1 99 -24 163 -90 234 -91 98 -223 139 -342 106z
m226 -114 c31 -19 64 -53 84 -84 43 -67 52 -169 20 -239 -40 -91 -116 -149
-214 -163 -158 -23 -317 135 -293 293 14 96 72 172 160 214 31 15 57 18 116
15 66 -3 84 -8 127 -36z"/>
<path d="M1703 601 c-10 -11 -43 -53 -73 -95 -30 -41 -57 -76 -60 -76 -3 0
-16 16 -30 36 -30 45 -63 62 -85 44 -25 -21 -17 -47 37 -120 76 -101 81 -100
196 54 51 68 92 130 92 138 0 38 -48 50 -77 19z"/>
<path d="M904 708 c-26 -35 -49 -65 -51 -67 -2 -3 -16 10 -31 29 -30 35 -62
37 -62 4 0 -25 69 -114 89 -114 19 0 141 158 141 183 0 12 -19 27 -35 27 -2 0
-25 -28 -51 -62z"/>
<path d="M1171 682 c-112 -3 -141 -10 -141 -38 0 -33 30 -44 125 -44 l93 0 21
36 c12 20 21 39 19 43 -2 3 -54 5 -117 3z"/>
</g>
</svg>
