<?xml version="1.0" standalone="no"?>
<!DOCTYPE svg PUBLIC "-//W3C//DTD SVG 20010904//EN"
 "http://www.w3.org/TR/2001/REC-SVG-20010904/DTD/svg10.dtd">
<svg version="1.0" xmlns="http://www.w3.org/2000/svg"
 width="512.000000pt" height="512.000000pt" viewBox="0 0 512.000000 512.000000"
 preserveAspectRatio="xMidYMid meet">

<g transform="translate(0.000000,512.000000) scale(0.100000,-0.100000)"
fill="#d90429" stroke="none">
<path d="M2415 4344 c-146 -31 -302 -130 -391 -247 -123 -162 -168 -360 -128
-555 81 -393 486 -630 869 -508 389 124 582 563 411 931 -135 288 -449 445
-761 379z m264 -159 c276 -66 451 -348 386 -624 -44 -187 -199 -342 -386 -386
-276 -65 -558 110 -624 386 -88 373 251 712 624 624z"/>
<path d="M394 3431 c-30 -13 -66 -64 -100 -139 -30 -70 -39 -76 -130 -87 -32
-4 -74 -13 -91 -21 -58 -23 -89 -103 -62 -157 6 -12 41 -52 76 -88 l65 -67
-16 -97 c-19 -109 -13 -146 28 -184 44 -42 91 -39 189 13 l87 45 87 -45 c98
-52 145 -55 189 -13 41 38 47 75 28 184 l-16 97 65 67 c35 36 70 76 76 88 24
48 4 115 -44 147 -23 15 -52 22 -173 42 -30 5 -37 13 -73 88 -21 45 -50 93
-63 105 -27 25 -89 36 -122 22z m85 -290 l34 -69 51 -6 c28 -4 66 -9 84 -13
l34 -6 -62 -62 -62 -62 12 -77 c7 -42 11 -79 8 -82 -3 -2 -34 12 -69 32 l-64
36 -70 -35 c-38 -20 -71 -34 -73 -32 -3 3 1 39 8 81 l12 77 -62 62 -62 63 85
12 85 13 33 68 c18 38 36 69 39 69 3 0 21 -31 39 -69z"/>
<path d="M4634 3430 c-30 -12 -66 -62 -100 -138 -30 -70 -39 -76 -130 -87 -32
-4 -74 -13 -91 -21 -58 -23 -89 -103 -62 -157 6 -12 41 -52 76 -88 l65 -67
-16 -97 c-19 -109 -13 -146 28 -184 44 -42 91 -39 189 13 l87 45 87 -45 c98
-52 145 -55 189 -13 41 38 47 75 28 184 l-16 97 65 67 c35 36 70 76 76 88 25
48 4 115 -45 147 -14 10 -65 24 -111 32 -47 7 -89 16 -92 19 -3 4 -24 43 -46
88 -54 111 -109 146 -181 117z m85 -289 l34 -69 51 -6 c28 -4 66 -9 84 -13
l34 -6 -62 -62 -62 -62 12 -77 c7 -42 11 -79 8 -82 -3 -2 -34 12 -69 32 l-64
36 -70 -35 c-38 -20 -71 -34 -73 -32 -3 3 1 39 8 81 l12 77 -62 62 -62 63 85
12 85 13 33 68 c18 38 36 69 39 69 3 0 21 -31 39 -69z"/>
<path d="M1905 3065 c-125 -47 -238 -114 -343 -204 -50 -43 -168 -180 -179
-207 -2 -7 9 -30 25 -53 16 -22 35 -54 42 -71 7 -16 15 -30 19 -30 3 0 23 27
44 61 50 77 133 167 209 224 79 59 223 130 321 159 l79 22 -42 28 c-22 15 -58
42 -78 60 l-37 34 -60 -23z"/>
<path d="M3125 3061 c-9 -11 -42 -37 -71 -57 -30 -21 -51 -41 -47 -45 5 -3 40
-17 78 -29 210 -68 391 -202 509 -379 l49 -73 32 61 c19 34 39 68 45 77 17 19
-17 70 -112 170 -98 103 -183 165 -313 229 -140 68 -147 70 -170 46z"/>
<path d="M1135 2551 c-34 -15 -68 -59 -115 -149 l-45 -87 -106 -16 c-113 -18
-151 -35 -175 -80 -33 -64 -15 -104 89 -207 l74 -73 -19 -109 c-22 -130 -14
-170 41 -207 50 -34 86 -29 200 27 l103 50 100 -50 c112 -56 149 -61 199 -27
55 37 63 77 41 207 l-19 109 74 73 c104 103 122 143 89 207 -24 45 -62 62
-175 80 l-106 17 -46 87 c-56 109 -92 147 -145 153 -21 2 -48 0 -59 -5z m95
-290 c43 -88 45 -90 84 -96 23 -4 70 -11 106 -17 l65 -11 -78 -71 -77 -71 18
-102 c10 -57 16 -103 14 -103 -3 0 -44 21 -92 47 l-87 46 -91 -46 c-50 -26
-92 -47 -94 -47 -3 0 4 46 14 103 l19 102 -78 71 -78 71 45 7 c25 4 72 12 106
17 l61 10 43 90 c24 49 47 89 50 89 3 0 26 -40 50 -89z"/>
<path d="M3895 2551 c-34 -15 -68 -59 -115 -149 l-45 -87 -106 -16 c-121 -19
-143 -28 -169 -72 -41 -67 -25 -109 83 -215 l74 -73 -19 -109 c-22 -130 -14
-170 41 -207 50 -34 86 -29 200 27 l103 50 100 -50 c112 -56 149 -61 199 -27
55 37 63 77 41 207 l-19 109 74 73 c104 103 122 143 89 207 -24 45 -62 62
-175 80 l-106 17 -46 87 c-56 109 -92 147 -145 153 -21 2 -48 0 -59 -5z m95
-290 c43 -88 45 -90 84 -96 23 -4 70 -11 106 -17 l65 -11 -78 -71 -77 -71 18
-102 c10 -57 16 -103 14 -103 -3 0 -44 21 -92 47 l-87 46 -91 -46 c-50 -26
-92 -47 -94 -47 -3 0 4 46 14 103 l19 102 -78 71 -78 71 45 7 c25 4 72 12 106
17 l61 10 43 90 c24 49 47 89 50 89 3 0 26 -40 50 -89z"/>
<path d="M2505 2226 c-49 -22 -70 -53 -149 -219 -42 -86 -81 -157 -88 -157
-48 -1 -320 -51 -345 -64 -67 -34 -96 -105 -73 -179 9 -31 42 -71 138 -169
l125 -128 -27 -162 c-14 -90 -26 -178 -26 -196 0 -105 92 -173 192 -143 22 7
100 46 174 87 l135 75 133 -75 c73 -41 151 -80 174 -86 100 -31 192 37 192
142 0 18 -12 106 -26 196 l-27 162 125 128 c96 98 129 138 138 169 25 82 -13
158 -93 187 -34 13 -287 56 -326 56 -7 0 -45 71 -87 157 -80 168 -100 198
-151 219 -40 17 -69 17 -108 0z m140 -338 c53 -114 86 -173 100 -179 11 -4 85
-17 165 -29 80 -11 158 -23 173 -26 27 -6 24 -10 -109 -150 l-137 -145 31
-192 c17 -105 30 -193 28 -194 -1 -2 -78 38 -169 88 l-167 91 -166 -91 c-92
-51 -168 -90 -170 -89 -1 2 11 90 28 195 l31 192 -136 143 c-74 79 -134 144
-132 146 1 2 79 14 171 28 93 14 178 28 189 33 13 6 47 66 100 179 44 94 82
171 85 171 3 0 41 -77 85 -171z"/>
<path d="M1146 1504 c-26 -15 -28 -19 -24 -65 7 -67 51 -136 107 -166 44 -23
48 -23 380 -23 l336 0 -80 80 -80 80 -240 0 c-250 0 -265 2 -265 42 0 11 -18
27 -50 43 -27 14 -51 25 -52 25 -2 -1 -16 -8 -32 -16z"/>
<path d="M3888 1494 c-30 -15 -48 -31 -48 -42 0 -40 -15 -42 -265 -42 l-240 0
-80 -80 -80 -80 336 0 c332 0 336 0 380 23 61 32 99 89 106 159 5 55 5 56 -25
72 -37 19 -27 20 -84 -10z"/>
</g>
</svg>
